<svg width="18" height="17" viewBox="0 0 18 17" fill="none" xmlns="http://www.w3.org/2000/svg">
<path d="M0 8.38672C0 8.65332 0 8.78711 0.0839844 8.82812C0.168213 8.86914 0.273438 8.78711 0.484131 8.62354L7.77222 2.95508C8.36206 2.49609 8.65698 2.26709 9 2.26709C9.15674 2.26709 9.30322 2.31494 9.47241 2.41016C9.67383 2.52393 9.90723 2.70557 10.2278 2.95508L17.5159 8.62354C17.7266 8.78711 17.8318 8.86914 17.916 8.82812C18 8.78711 18 8.65332 18 8.38672V7.97803C18 7.49805 18 7.25781 17.8982 7.0498C17.7966 6.8418 17.6069 6.69434 17.2278 6.39941L14.9773 4.64893C14.9919 4.60205 15 4.55176 15 4.5V1.5C15 1.22363 14.7761 1 14.5 1H13.5C13.2239 1 13 1.22363 13 1.5V3.11133L10.2278 0.955078C9.63794 0.496094 9.34302 0.26709 9 0.26709C8.7915 0.26709 8.60083 0.351562 8.35083 0.520996C8.18945 0.630371 8.00342 0.774902 7.77222 0.955078L0.772217 6.39941C0.393066 6.69434 0.203369 6.8418 0.101807 7.0498C0 7.25781 0 7.49805 0 7.97803V8.38672Z" fill="black"/>
<path d="M2.03589 8.78809C2.06592 8.521 2.12085 8.31006 2.22168 8.11426C2.44336 7.68359 2.854 7.39014 3.67505 6.80371L7.8374 3.83057C8.39893 3.42969 8.67944 3.229 9 3.229C9.17896 3.229 9.34546 3.2915 9.55518 3.4165C9.72119 3.51514 9.91455 3.65332 10.1626 3.83057L14.325 6.80371C15.146 7.39014 15.5566 7.68359 15.7783 8.11426C16 8.54492 16 9.04932 16 10.0586V15C16 15.4858 16 15.8467 15.96 16.1221C15.9224 16.3813 15.8491 16.5654 15.707 16.707C15.4143 17 14.9429 17 14 17H11.3501C11.4329 17 11.5 16.9331 11.5 16.8501V13C11.5 11.8955 10.6045 11 9.5 11H8.5C7.39551 11 6.5 11.8955 6.5 13V16.8501C6.5 16.9331 6.56714 17 6.6499 17H4C3.05713 17 2.58569 17 2.29297 16.707C2 16.4146 2 15.9429 2 15V10.0586C2 9.5083 2 9.1084 2.03589 8.78809Z" fill="black"/>
</svg>
