<svg width="34" height="45" viewBox="0 0 34 45" fill="none" xmlns="http://www.w3.org/2000/svg">
<path d="M14.7756 33.4889C10.5337 32.9505 6.65648 30.821 3.93198 27.5332C1.20747 24.2454 -0.159847 20.0461 0.107924 15.7887C0.375694 11.5314 2.25846 7.53545 5.37355 4.61316C8.48864 1.69088 12.6023 0.0615058 16.8784 0.056218C21.1598 0.0530376 25.2812 1.67843 28.403 4.6012C31.5249 7.52397 33.4121 11.5242 33.6802 15.7868C33.9483 20.0493 32.5771 24.2535 29.846 27.5426C27.1149 30.8317 23.2294 32.9583 18.9812 33.4889V37.8395C27.2788 38.0325 33.7007 39.3561 33.7007 40.9609C33.7007 42.6977 26.1685 44.1074 16.8784 44.1074C7.58832 44.1074 0.0561523 42.6977 0.0561523 40.9609C0.0561523 39.3561 6.47805 38.0325 14.7756 37.8395V33.4889Z" fill="#0A8008" stroke="hsl(76, 28%, 82%)" stroke-width="1" stroke-alignment="inner" />
</svg>
