<svg xmlns="http://www.w3.org/2000/svg" width="34" height="45" fill="none" viewBox="0 0 34 45">
  <path fill="#0A8008" stroke="#D7DEC4" d="m15.276 33.048-.438-.055a16.335 16.335 0 0 1-10.521-5.779A16.258 16.258 0 0 1 5.715 4.978a16.345 16.345 0 0 1 22.346-.012 16.264 16.264 0 0 1 5.12 10.852 16.256 16.256 0 0 1-3.72 11.405 16.333 16.333 0 0 1-10.542 5.77l-.438.054v5.28l.488.012c4.13.096 7.778.474 10.381 1.02 1.305.275 2.322.588 3 .915.34.164.57.32.706.455.135.134.145.21.145.232 0 .022-.01.11-.179.264-.168.154-.444.325-.846.503-.8.354-1.988.684-3.495.966-3.006.562-7.179.913-11.803.913-4.623 0-8.797-.35-11.802-.913-1.507-.282-2.696-.612-3.495-.966-.402-.178-.678-.35-.846-.503-.169-.154-.179-.242-.179-.264 0-.022.01-.098.145-.232.137-.136.365-.291.706-.455.678-.327 1.694-.64 3-.914 2.603-.547 6.25-.925 10.38-1.02l.489-.012v-5.28Z"/>
</svg>
