<svg width="43" height="43" viewBox="0 0 43 43" fill="none" xmlns="http://www.w3.org/2000/svg">
<path fill-rule="evenodd" clip-rule="evenodd" d="M2.62988 0.629883H11.7409V2.62988H2.62988V12.1113H0.629883V2.62988C0.629883 1.52531 1.52531 0.629883 2.62988 0.629883ZM0.629883 30.6298V40.1113C0.629883 41.2159 1.52531 42.1113 2.62988 42.1113H11.7409V40.1113H2.62988V30.6298H0.629883ZM40.1113 30.6298V40.1113H30.2595V42.1113H40.1113C41.2159 42.1113 42.1113 41.2159 42.1113 40.1113V30.6298H40.1113ZM42.1113 12.1113V2.62988C42.1113 1.52531 41.2159 0.629883 40.1113 0.629883H30.2595V2.62988H40.1113V12.1113H42.1113Z" fill="white"/>
<path fill-rule="evenodd" clip-rule="evenodd" d="M2.62988 0.629883H11.7409V2.62988H2.62988V12.1113H0.629883V2.62988C0.629883 1.52531 1.52531 0.629883 2.62988 0.629883ZM0.629883 30.6298V40.1113C0.629883 41.2159 1.52531 42.1113 2.62988 42.1113H11.7409V40.1113H2.62988V30.6298H0.629883ZM40.1113 30.6298V40.1113H30.2595V42.1113H40.1113C41.2159 42.1113 42.1113 41.2159 42.1113 40.1113V30.6298H40.1113ZM42.1113 12.1113V2.62988C42.1113 1.52531 41.2159 0.629883 40.1113 0.629883H30.2595V2.62988H40.1113V12.1113H42.1113Z" fill="black"/>
</svg>
